# xmcd
#
# Track frame offsets:
# 150
# 13187
# 27627
# 42491
# 60127
# 76463
# 95881
# 111468
# 130429
# 147636
#
# Disc length: 2174 seconds
#
#
# Revision: 8
# Processed by: cddbd v1.5.1PL2 Copyright (c) Steve Scherf et al.
# Submitted via: FreeRIP 2.945 
#
DISCID=96087c0a
DTITLE=Shelby Lynne - I Am Shelby Lynne
DYEAR=2000
DGENRE=Crossover
TTITLE0=Your Lies
TTITLE1=Leavin'
TTITLE2=Life Is Bad
TTITLE3=Thought It Would Be Easier
TTITLE4=Gotta Get Back
TTITLE5=Why Can't You Be?
TTITLE6=Lookin' Up
TTITLE7=Dreamsome
TTITLE8=Where I'm From
TTITLE9=Black Light Blue
EXTD=LABEL =Island Def Jam Music Group\nID =314546177-2\nUPC =731454-617727\nCOPYRIGHT =1999, 2000\n*****\nYEAR: 2000\nID3G:   2
EXTT0=
EXTT1=
EXTT2=
EXTT3=
EXTT4=
EXTT5=
EXTT6=
EXTT7=
EXTT8=
EXTT9=
PLAYORDER=
